# WaveFront *.obj file (generated by Autodesk ATF)

mtllib fbda482f-bc6e-45e5-8be9-3c550216c712.mtl

g Body1

v -475.000000 -347.755269 0.000000
v -322.755269 -500.000000 0.000000
v -267.564924 -444.809655 313.000000
v -419.809655 -292.564924 313.000000
v 267.564924 -444.809655 313.000000
v 419.809655 -292.564924 313.000000
v 419.809655 292.564924 313.000000
v 267.564924 444.809655 313.000000
v -267.564924 444.809655 313.000000
v -419.809655 292.564924 313.000000
v 322.755269 -500.000000 0.000000
v 475.000000 -347.755269 0.000000
v 475.000000 347.755269 0.000000
v 322.755269 500.000000 0.000000
v -322.755269 500.000000 0.000000
v -475.000000 347.755269 0.000000
vt -3.251137 -11.862587 0.000000
vt 28.102636 -4.276392 0.000000
vt -8.314481 9.064231 0.000000
vt 23.039292 16.650426 0.000000
vt -41.980966 -29.256492 0.000000
vt -26.756492 -44.480966 0.000000
vt -41.980966 29.256492 0.000000
vt 26.756492 -44.480966 0.000000
vt -26.756492 44.480966 0.000000
vt 41.980966 -29.256492 0.000000
vt 26.756492 44.480966 0.000000
vt 41.980966 29.256492 0.000000
vt 15.224473 0.000000 0.000000
vt 79.775527 -0.000000 0.000000
vt 20.743508 31.782853 0.000000
vt 74.256492 31.782853 0.000000
vt 2.835413 -11.762001 0.000000
vt 7.898757 9.164817 0.000000
vt -28.518360 -4.175805 0.000000
vt -23.455017 16.751013 0.000000
vt -23.039292 -16.650426 0.000000
vt 8.314481 -9.064231 0.000000
vt -28.102636 4.276392 0.000000
vt 3.251137 11.862587 0.000000
vt 15.224473 0.000000 0.000000
vt 79.775527 0.000000 0.000000
vt 20.743508 31.782853 0.000000
vt 74.256492 31.782853 0.000000
vt 47.500000 -34.775527 0.000000
vt -32.275527 50.000000 0.000000
vt 32.275527 -50.000000 0.000000
vt -47.500000 34.775527 0.000000
vt -32.275527 -50.000000 0.000000
vt -47.500000 -34.775527 0.000000
vt 47.500000 34.775527 0.000000
vt 32.275527 50.000000 0.000000
vt 23.455017 -16.751013 0.000000
vt 28.518360 4.175805 0.000000
vt -7.898757 -9.164817 0.000000
vt -2.835413 11.762001 0.000000
vt 79.256492 31.782853 0.000000
vt 20.743508 31.782853 0.000000
vt 84.775527 0.000000 0.000000
vt 15.224473 -0.000000 0.000000
vt 15.224473 0.000000 0.000000
vt 84.775527 0.000000 0.000000
vt 20.743508 31.782853 0.000000
vt 79.256492 31.782853 0.000000
vn -0.068610 -0.068610 0.024195
vn -0.068610 -0.068610 0.024195
vn -0.068610 -0.068610 0.024195
vn -0.068610 -0.068610 0.024195
vn 0.000000 0.000000 0.100000
vn 0.000000 0.000000 0.100000
vn 0.000000 0.000000 0.100000
vn 0.000000 0.000000 0.100000
vn 0.000000 0.000000 0.100000
vn 0.000000 0.000000 0.100000
vn 0.000000 0.000000 0.100000
vn 0.000000 0.000000 0.100000
vn -0.000000 -0.098481 0.017365
vn -0.000000 -0.098481 0.017365
vn -0.000000 -0.098481 0.017365
vn -0.000000 -0.098481 0.017365
vn 0.068610 -0.068610 0.024195
vn 0.068610 -0.068610 0.024195
vn 0.068610 -0.068610 0.024195
vn 0.068610 -0.068610 0.024195
vn 0.068610 0.068610 0.024195
vn 0.068610 0.068610 0.024195
vn 0.068610 0.068610 0.024195
vn 0.068610 0.068610 0.024195
vn 0.000000 0.098481 0.017365
vn 0.000000 0.098481 0.017365
vn 0.000000 0.098481 0.017365
vn 0.000000 0.098481 0.017365
vn 0.000000 0.000000 -0.100000
vn 0.000000 0.000000 -0.100000
vn 0.000000 0.000000 -0.100000
vn 0.000000 0.000000 -0.100000
vn 0.000000 0.000000 -0.100000
vn 0.000000 0.000000 -0.100000
vn 0.000000 0.000000 -0.100000
vn 0.000000 0.000000 -0.100000
vn -0.068610 0.068610 0.024195
vn -0.068610 0.068610 0.024195
vn -0.068610 0.068610 0.024195
vn -0.068610 0.068610 0.024195
vn -0.098481 -0.000000 0.017365
vn -0.098481 -0.000000 0.017365
vn -0.098481 -0.000000 0.017365
vn -0.098481 -0.000000 0.017365
vn 0.098481 0.000000 0.017365
vn 0.098481 0.000000 0.017365
vn 0.098481 0.000000 0.017365
vn 0.098481 0.000000 0.017365
usemtl Steel_-_Satin
f 2/1/1 3/2/2 1/3/3
f 1/3/3 3/2/2 4/4/4
f 4/5/5 3/6/6 10/7/7
f 10/7/7 3/6/6 5/8/8
f 10/7/7 5/8/8 9/9/9
f 9/9/9 5/8/8 6/10/10
f 9/9/9 6/10/10 8/11/11
f 8/11/11 6/10/10 7/12/12
f 2/13/13 11/14/14 3/15/15
f 3/15/15 11/14/14 5/16/16
f 11/17/17 12/18/18 5/19/19
f 5/19/19 12/18/18 6/20/20
f 7/21/21 13/22/22 8/23/23
f 8/23/23 13/22/22 14/24/24
f 14/25/25 15/26/26 8/27/27
f 8/27/27 15/26/26 9/28/28
f 1/29/29 14/30/30 2/31/31
f 2/31/31 14/30/30 13/32/32
f 2/31/31 13/32/32 11/33/33
f 11/33/33 13/32/32 12/34/34
f 16/35/35 15/36/36 1/29/29
f 1/29/29 15/36/36 14/30/30
f 10/37/37 9/38/38 16/39/39
f 16/39/39 9/38/38 15/40/40
f 4/41/41 10/42/42 1/43/43
f 1/43/43 10/42/42 16/44/44
f 12/45/45 13/46/46 6/47/47
f 6/47/47 13/46/46 7/48/48

# 16 vertices
# 48 texture params
# 48 normals
# 28 facets

# 1 groups
